<svg width="1440" height="898" viewBox="0 0 1440 898" fill="none" xmlns="http://www.w3.org/2000/svg">
<path d="M2120.47 586.57C2019.4 678.58 1843.31 750.401 1592.2 802.033C1341.08 853.665 1062.88 885.107 757.583 896.36C452.287 907.613 269.944 860.946 210.552 756.359C151.16 651.771 -14.5124 574.324 -286.465 524.016C-558.418 473.708 -638.128 405.031 -525.596 317.985C-413.064 230.94 -246.349 154.816 -25.4531 89.6143C195.443 24.4127 458.539 -5.20936 763.835 0.748152C1069.13 6.70566 1279.09 52.3799 1393.7 137.771C1508.32 223.162 1683.37 296.307 1918.85 357.206C2154.34 418.105 2221.54 494.559 2120.47 586.57Z" fill="url(#paint0_linear_318_31)"/>
<defs>
<linearGradient id="paint0_linear_318_31" x1="36" y1="1031" x2="44.2443" y2="-97.6534" gradientUnits="userSpaceOnUse">
<stop stop-color="#F2AF63"/>
<stop offset="1" stop-color="#A331CB"/>
</linearGradient>
</defs>
</svg>
