<?xml version="1.0" encoding="utf-8"?>
<!-- Generator: Adobe Illustrator 26.0.1, SVG Export Plug-In . SVG Version: 6.00 Build 0)  -->
<svg version="1.1" id="Calque_1" xmlns="http://www.w3.org/2000/svg" xmlns:xlink="http://www.w3.org/1999/xlink" x="0px" y="0px"
	 viewBox="0 0 326 372.8" style="enable-background:new 0 0 326 372.8;" xml:space="preserve">
<style type="text/css">
	.st0{fill:url(#SVGID_1_);}
</style>
<linearGradient id="SVGID_1_" gradientUnits="userSpaceOnUse" x1="0.6299" y1="309.114" x2="300.2739" y2="25.8012" gradientTransform="matrix(1 0 0 -1 0 373.6695)">
	<stop  offset="0" style="stop-color:#F2AF63"/>
	<stop  offset="1" style="stop-color:#A331CB"/>
</linearGradient>
<path class="st0" d="M10.2,318.2C-0.1,280,6.2,243,28.9,207.1C51.7,171.1,68.5,128,79.5,77.7c11-50.3,39-74.9,84.1-73.8
	C208.6,5,239.5,20.4,256.1,50c16.6,29.7,31.1,54.5,43.3,74.5c12.2,20,19.2,45.2,21,75.6c1.8,30.4-7.6,64.1-28.2,101
	c-20.6,36.9-49.4,56.1-86.5,57.6c-37.1,1.5-76.4,4.6-117.9,9.4C46.3,373,20.4,356.3,10.2,318.2z"/>
</svg>
