<svg width="362" height="952" viewBox="0 0 362 952" fill="none" xmlns="http://www.w3.org/2000/svg">
<path d="M201.887 349.037C179.085 452.367 159.213 529.896 142.272 581.624C125.331 633.352 99.2679 676.534 64.0816 711.171C28.8953 745.808 -14.8535 785.441 -67.1647 830.07C-119.476 874.699 -178.975 883.363 -245.663 856.063C-312.351 828.762 -338.057 778.191 -322.781 704.35C-307.506 630.508 -305.615 569.249 -317.11 520.573C-328.604 471.896 -328.752 405.987 -317.554 322.845C-306.355 239.704 -260.707 200.481 -180.608 205.175C-100.509 209.87 -11.0341 209.188 87.8157 203.13C186.666 197.071 224.689 245.707 201.887 349.037Z" fill="url(#paint0_linear_318_27)"/>
<defs>
<linearGradient id="paint0_linear_318_27" x1="18.3036" y1="885.272" x2="-501.983" y2="381.181" gradientUnits="userSpaceOnUse">
<stop stop-color="#F2AF63"/>
<stop offset="1" stop-color="#A331CB"/>
</linearGradient>
</defs>
</svg>
