<svg width="428" height="503" viewBox="0 0 428 503" fill="none" xmlns="http://www.w3.org/2000/svg">
<path d="M102.742 357.897C92.4906 319.765 98.7376 282.734 121.483 246.802C144.228 210.87 161.091 167.74 172.072 117.412C183.053 67.084 211.079 42.4804 256.149 43.6011C301.22 44.7218 332.069 60.1084 348.696 89.7608C365.323 119.413 379.749 144.232 391.974 164.218C404.2 184.204 411.201 209.407 412.976 239.827C414.752 270.248 405.35 303.916 384.769 340.832C364.188 377.749 335.351 396.937 298.259 398.398C261.168 399.858 221.871 403.006 180.37 407.841C138.87 412.677 112.994 396.028 102.742 357.897Z" fill="url(#paint0_linear_318_21)"/>
<defs>
<linearGradient id="paint0_linear_318_21" x1="163.318" y1="30.1232" x2="462.962" y2="313.436" gradientUnits="userSpaceOnUse">
<stop stop-color="#F2AF63"/>
<stop offset="1" stop-color="#A331CB"/>
</linearGradient>
</defs>
</svg>
