<svg width="416" height="329" viewBox="0 0 416 329" fill="none" xmlns="http://www.w3.org/2000/svg">
<path d="M192.3 328.507C185.788 326.901 179.293 325.335 173.592 321.545C160.536 312.874 153.302 300.83 152.515 285.084C152.355 281.776 152.427 278.46 152.427 275.152C152.427 199.206 152.427 123.255 152.427 47.2981C152.427 30.2761 159.003 16.6745 173.303 7.52117C188.093 -1.92122 203.814 -2.4913 219.206 5.91533C234.96 14.5548 242.7 28.5096 242.796 46.4149C242.957 76.9662 242.836 107.517 242.844 138.069L242.844 251.514C245.478 251.514 247.798 251.594 250.119 251.514C254.703 251.321 257.939 253.417 259.931 257.375C261.536 260.587 262.877 263.992 264.355 267.3C264.86 268.432 265.439 269.54 266.217 271.13C268.297 266.424 270.039 262.217 271.998 258.106C273.797 254.324 276.543 251.618 281.072 251.57C285.745 251.522 288.563 254.284 290.41 258.186C292.312 262.201 294.047 266.32 296.167 271.113C296.969 269.371 297.58 268.207 298.118 267.027C299.724 263.542 301 259.881 302.935 256.589C306.95 249.699 315.541 249.756 319.58 256.661C321.242 259.495 322.39 262.635 323.747 265.638C324.478 267.243 325.184 268.849 326.212 271.258L328.308 266.577C329.857 263.189 331.134 259.632 333.029 256.452C337.043 249.716 345.458 249.756 349.481 256.508C351.263 259.511 352.468 262.851 353.945 266.047L356.434 271.451H369.466V281.222C364.271 281.222 359.028 281.736 353.961 280.989C351.673 280.652 349.224 278.163 347.787 276.019C345.803 273.049 344.711 269.492 343.226 266.192C342.672 264.955 342.078 263.783 341.227 261.928C340.175 264.297 339.388 266.127 338.561 267.942C337.228 270.84 336.152 273.884 334.482 276.597C330.468 283.286 322.013 283.294 317.99 276.597C316.191 273.603 314.987 270.254 313.526 267.059C312.827 265.525 312.161 263.967 311.189 261.751C309.848 264.963 308.837 267.508 307.705 270.013C306.78 272.279 305.707 274.481 304.493 276.605C300.374 283.27 292.023 283.318 288.001 276.605C286.154 273.514 284.926 270.062 283.416 266.77L281.152 261.832C279.811 265.043 278.807 267.557 277.683 270.046C276.762 272.313 275.689 274.515 274.472 276.638C270.344 283.278 261.978 283.294 257.979 276.581C256.133 273.482 254.896 270.03 253.387 266.738L251.106 261.711H242.917C242.917 264.369 243.037 267.011 242.917 269.636C242.467 277.93 243.165 286.498 241.166 294.438C236.397 313.283 223.598 324.331 204.44 327.92C203.825 328.073 203.222 328.269 202.634 328.507H192.3ZM232.719 164.348C232.719 124.507 232.888 84.6742 232.655 44.8331C232.503 20.2797 207.411 3.80363 184.584 12.8526C170.613 18.3928 162.375 31.1753 162.367 47.4667C162.367 119.778 162.367 192.084 162.367 264.385C162.367 270.471 162.271 276.565 162.367 282.651C162.833 305.88 182.585 322.163 204.762 317.659C221.181 314.327 232.663 299.995 232.687 282.571C232.746 243.158 232.757 203.751 232.719 164.348Z" fill="#FFFAF1"/>
<path d="M415.57 92.3823L344.551 131.846L323.233 115.9V123.929H296.391V84.1042L251.428 84.1042V74.0114L296.319 74.0114V60.715H323.089V68.969L344.551 52.9105C368.141 66.0303 391.626 79.0859 415.57 92.3823ZM345.37 119.891L384.352 98.2116L384.159 97.6254H369.393C364.319 105.831 358.385 108.866 351.271 106.907C348.13 106.123 345.328 104.341 343.284 101.83C341.241 99.3183 340.066 96.2122 339.937 92.9771C339.808 89.7419 340.73 86.552 342.567 83.8854C344.403 81.2189 347.055 79.2194 350.123 78.1866C356.113 76.1391 364.335 77.2793 369.578 87.2195H384.488L384.665 86.7137C371.577 79.4338 358.476 72.1486 345.362 64.858C338.28 70.1734 331.343 75.2961 324.486 80.5954C324.108 80.9292 323.8 81.3345 323.58 81.7878C323.359 82.2412 323.23 82.7337 323.201 83.237C323.097 89.8531 323.145 96.4772 323.145 103.23L345.37 119.891ZM312.875 114.021V70.8398H306.677V114.021H312.875ZM355.35 87.4524C354.059 87.3645 352.785 87.782 351.796 88.6165C350.807 89.451 350.181 90.6373 350.051 91.9247C349.939 93.2097 350.34 94.4869 351.165 95.4779C351.991 96.469 353.175 97.0937 354.459 97.2159C355.121 97.3034 355.794 97.2523 356.435 97.0658C357.076 96.8794 357.672 96.5616 358.184 96.1328C358.696 95.7039 359.113 95.1734 359.409 94.5747C359.705 93.9761 359.873 93.3224 359.903 92.6553C359.97 91.3663 359.532 90.1019 358.682 89.1305C357.832 88.1591 356.637 87.5571 355.35 87.4524Z" fill="#FFFAF1"/>
<path d="M105.167 144.476L100.984 154.585C115.83 162.165 130.692 169.76 145.851 177.508L141.363 186.469L55.0563 142.493C50.6804 146.339 45.7665 149.117 39.8007 149.84C34.2577 150.489 28.6443 149.55 23.6138 147.134C18.5232 144.797 16.1787 140.614 16.002 135.146C15.9137 132.593 16.002 130.023 16.0663 127.462C16.267 122.299 13.8582 118.702 9.46623 116.285C7.78812 115.354 6.01363 114.599 4.35158 113.644C-0.811234 110.665 -1.62216 105.117 3.22751 101.68C7.11458 99.0922 11.3811 97.1256 15.8736 95.851C24.6174 93.1451 33.6744 92.021 42.7314 94.0685C52.7439 96.3327 63.479 104.771 64.2578 120.404L146.501 147.511L143.378 157.026L105.167 144.476ZM14.1071 106.795C14.3159 107.244 14.3319 107.373 14.4042 107.429C14.8199 107.78 15.257 108.104 15.713 108.401C23.0597 112.993 26.5204 119.593 26.0547 128.265C25.9423 130.393 25.7094 132.601 26.1671 134.632C26.4802 136.037 27.6203 137.844 28.8488 138.358C35.6737 141.072 42.3781 140.847 47.7497 135.267C53.2738 129.534 55.779 122.556 53.0089 114.76C50.4315 107.534 44.6183 103.944 37.135 103.278C29.2663 102.587 21.7108 104.386 14.1071 106.795ZM95.5559 141.321C84.2025 137.587 73.4353 134.046 62.5075 130.457L60.9016 134.215L91.9909 149.976L95.5559 141.321Z" fill="#FFFAF1"/>
<path d="M251.339 110.52V101.086H287.792V110.52H251.339Z" fill="#FFFAF1"/>
<path d="M182.601 38.6265C182.612 36.6465 183.018 34.6886 183.794 32.867C184.57 31.0453 185.701 29.3965 187.121 28.0168C188.541 26.637 190.222 25.5539 192.065 24.8307C193.908 24.1075 195.877 23.7586 197.857 23.8045C200.824 23.8524 203.71 24.7783 206.151 26.4655C208.592 28.1526 210.479 30.5253 211.572 33.2839C212.666 36.0424 212.918 39.0632 212.296 41.9647C211.673 44.8662 210.206 47.5183 208.077 49.5862C205.949 51.654 203.256 53.0448 200.337 53.583C197.419 54.1211 194.407 53.7825 191.681 52.6098C188.955 51.4372 186.638 49.4831 185.022 46.9943C183.406 44.5055 182.563 41.5937 182.601 38.6265ZM197.503 43.7652C198.173 43.7922 198.842 43.6834 199.469 43.4456C200.096 43.2078 200.668 42.8457 201.152 42.3812C201.635 41.9166 202.02 41.3592 202.283 40.7422C202.546 40.1253 202.681 39.4617 202.681 38.7911C202.681 38.1205 202.546 37.4569 202.283 36.84C202.02 36.2231 201.635 35.6656 201.152 35.2011C200.668 34.7365 200.096 34.3745 199.469 34.1366C198.842 33.8988 198.173 33.7901 197.503 33.817C196.219 33.8686 195.004 34.4152 194.113 35.3424C193.222 36.2696 192.725 37.5054 192.725 38.7911C192.725 40.0768 193.222 41.3126 194.113 42.2398C195.004 43.167 196.219 43.7136 197.503 43.7652Z" fill="#FFFAF1"/>
<path d="M182.601 289.862C182.621 287.885 183.03 285.932 183.805 284.114C184.581 282.296 185.707 280.649 187.119 279.266C188.531 277.884 190.202 276.793 192.037 276.057C193.871 275.321 195.832 274.953 197.808 274.976C201.788 275.014 205.59 276.632 208.377 279.473C211.164 282.315 212.709 286.147 212.67 290.127C212.632 294.107 211.014 297.909 208.173 300.696C205.331 303.483 201.499 305.027 197.519 304.989C195.542 304.991 193.584 304.6 191.759 303.838C189.934 303.076 188.28 301.959 186.891 300.551C185.503 299.143 184.408 297.473 183.672 295.637C182.935 293.802 182.571 291.839 182.601 289.862ZM197.592 294.993C198.245 294.981 198.89 294.842 199.49 294.581C200.09 294.321 200.632 293.945 201.087 293.475C201.541 293.005 201.899 292.45 202.139 291.842C202.379 291.233 202.496 290.584 202.485 289.93C202.474 289.276 202.335 288.631 202.074 288.031C201.814 287.432 201.438 286.889 200.968 286.435C200.498 285.98 199.943 285.623 199.334 285.383C198.726 285.143 198.077 285.025 197.423 285.036C196.103 285.059 194.845 285.605 193.928 286.554C193.01 287.503 192.507 288.778 192.529 290.099C192.551 291.419 193.097 292.676 194.047 293.594C194.996 294.512 196.271 295.015 197.592 294.993Z" fill="#FFFAF1"/>
<path d="M224.208 67.5077V77.0866H170.934V67.5077H224.208Z" fill="#FFFAF1"/>
<path d="M170.999 251.675H224.104V261.31H170.999V251.675Z" fill="#FFFAF1"/>
<path d="M204.838 105.887L197.318 126.495L189.83 105.887H186.918V131.807H190.022V115.487L195.974 131.807H198.694L204.646 115.487V131.807H207.75V105.887H204.838ZM196.814 176.839C203.758 176.839 207.438 169.607 207.438 163.879C207.438 157.191 202.99 150.887 196.814 150.887C190.35 150.887 186.158 157.415 186.158 163.879C186.158 169.991 190.126 176.839 196.814 176.839ZM196.814 154.055C200.814 154.055 204.334 158.311 204.334 163.879C204.334 169.479 200.814 173.735 196.814 173.735C192.814 173.735 189.262 169.479 189.262 163.879C189.262 158.311 192.814 154.055 196.814 154.055ZM196.699 221.807H199.803V195.887H196.699V221.807Z" fill="#FFFAF1"/>
</svg>
