<svg width="170" height="129" viewBox="0 0 170 129" fill="none" xmlns="http://www.w3.org/2000/svg">
<path d="M170 56.2941C163.36 76.9716 156.721 97.6533 150.081 118.339C147.78 125.498 142.982 129 135.441 129C95.2823 129 55.1194 129 14.9522 129C5.96788 129 0 123.052 0 114.129V11.1281C0 5.45017 3.06845 1.40737 8.23021 0.261487C9.26255 0.0660748 10.3129 -0.0202433 11.3637 0.00398428H48.8742C54.413 0.00398428 57.9755 2.57901 59.8868 7.72907C60.7449 10.0337 61.5771 12.3512 62.4222 14.6688C63.2673 16.9863 63.9694 17.4755 66.4658 17.4755H128.043C134.791 17.4755 139.12 21.7887 139.159 28.4838C139.159 32.3463 139.159 36.1445 139.159 40.1615C139.901 40.1615 140.46 40.2517 141.162 40.2517C146.48 40.2517 151.797 40.0843 157.089 40.419C163.59 40.8182 168.258 45.1185 169.649 51.4144C169.753 51.8264 169.883 52.2384 170 52.7019V56.2941ZM94.6799 47.642H34.7671C30.1774 47.642 27.9541 49.3286 26.5499 53.7191C22.45 66.5255 18.3674 79.3106 14.3021 92.0741C12.0008 99.0524 9.64742 106.005 7.56711 113.035C7.14516 114.661 7.24977 116.377 7.86616 117.94C9.16635 121.005 11.8707 122.047 15.1342 122.047C55.1281 122.047 95.122 122.047 135.116 122.047C139.576 122.047 142.072 120.219 143.45 115.983C149.704 96.6705 155.906 77.2162 162.251 57.8777C164.266 51.7363 160.158 47.5776 154.749 47.642C134.726 47.8094 114.703 47.642 94.6799 47.642ZM7.06004 89.615L7.39809 89.7051C7.59312 89.1643 7.78815 88.6236 7.97017 88.0699C12.0528 75.5296 16.0574 62.9634 20.283 50.4617C21.0923 48.2622 22.3491 46.2508 23.9755 44.552C26.8489 41.5006 30.7105 40.625 34.8711 40.6894C66.6218 40.6894 98.3811 40.6894 130.149 40.6894H132.463V30.0159C132.463 25.9989 131.319 24.8659 127.263 24.8659H67.4539C61.512 24.8659 57.7545 22.2908 55.7522 16.7674C54.9591 14.5014 54.153 12.2354 53.3078 9.96934C52.5667 7.96082 51.7346 7.39431 49.6153 7.39431C36.7261 7.39431 23.8368 7.39431 10.9476 7.39431C8.41224 7.39431 7.19006 8.68183 7.04704 11.1152C7.04704 11.656 7.04704 12.2096 7.04704 12.7504V89.615H7.06004Z" fill="#FFFAF1"/>
</svg>
