<svg width="172" height="138" viewBox="0 0 172 138" fill="none" xmlns="http://www.w3.org/2000/svg">
<path d="M172 109.057C170.096 114.208 168.363 115.395 162.733 115.395H100.3V126.406C100.874 126.406 101.467 126.487 102.096 126.487C105.571 126.487 109.037 126.487 112.512 126.487C115.062 126.487 119.336 129.678 120.117 132.078C120.32 132.721 120.379 133.401 120.288 134.069C120.198 134.737 119.961 135.376 119.595 135.942C119.228 136.507 118.741 136.984 118.168 137.339C117.596 137.694 116.952 137.917 116.283 137.993C116.115 138.002 115.948 138.002 115.78 137.993C95.9536 137.993 76.1302 137.993 56.3097 137.993C55.6635 138.011 55.0212 137.889 54.4265 137.635C53.8318 137.382 53.2989 137.003 52.864 136.524C52.4292 136.045 52.1028 135.478 51.9071 134.861C51.7114 134.244 51.6511 133.593 51.7302 132.95C51.7686 132.561 51.8623 132.18 52.0086 131.818C52.9065 129.373 57.1448 126.478 59.7757 126.469H71.6105V115.395H8.60224C2.71177 115.395 0 112.698 0 106.729V8.17197C0 4.01898 1.79588 1.27729 5.20804 0.30646C6.01951 0.0924184 6.85624 -0.0103967 7.69533 0.000829102C59.8835 0.000829102 112.075 0.000829102 164.269 0.000829102C168.525 0.000829102 170.797 2.33801 172 6.11345V109.057ZM168.309 97.5781V95.7802C168.309 66.5775 168.309 37.3657 168.309 8.145C168.309 4.81003 167.097 3.56952 163.766 3.56952H8.17124C4.83091 3.59649 3.59175 4.81003 3.59175 8.145V97.5781H168.309ZM168.309 101.327H3.59175V106.792C3.59175 110.729 4.63336 111.763 8.56633 111.763H163.299C163.802 111.763 164.305 111.763 164.808 111.763C165.717 111.759 166.589 111.399 167.238 110.761C167.887 110.123 168.262 109.257 168.283 108.347C168.363 106.073 168.3 103.763 168.3 101.327H168.309ZM85.9057 134.488H114.119C114.676 134.488 115.358 134.649 115.753 134.38C116.148 134.11 116.543 133.067 116.418 132.95C114.963 131.665 113.859 129.957 111.452 129.975C94.8312 130.047 78.2283 130.083 61.5896 129.975C60.4841 129.978 59.3923 130.22 58.3893 130.686C57.3864 131.151 56.4961 131.829 55.7799 132.672C55.5105 132.941 55.2501 133.571 55.3848 133.813C55.6685 134.184 56.0768 134.44 56.5342 134.532C56.9779 134.596 57.4284 134.596 57.8721 134.532L85.9057 134.488ZM96.5642 126.397V115.502H75.4268V126.442L96.5642 126.397Z" fill="#FFFAF1"/>
</svg>
