<svg width="125" height="123" viewBox="0 0 125 123" fill="none" xmlns="http://www.w3.org/2000/svg">
<g clip-path="url(#clip0_460_12)">
<path d="M0 14.7601C0.15 14.1401 0.3 13.5201 0.44 12.8901C1.36385 8.86853 3.75321 5.3356 7.14168 2.98091C10.5302 0.626217 14.6745 -0.381214 18.7658 0.155266C22.8571 0.691746 26.6016 2.73363 29.2684 5.88234C31.9352 9.03105 33.3329 13.0606 33.1887 17.1843C33.0445 21.3081 31.3686 25.2302 28.4883 28.1848C25.6081 31.1395 21.73 32.9148 17.6113 33.1641C13.4925 33.4135 9.42866 32.1189 6.21298 29.5333C2.9973 26.9476 0.860615 23.2563 0.22 19.1801C0.172525 18.9938 0.0984287 18.8153 0 18.6501L0 14.7601ZM29 16.6001C29 14.9691 28.6787 13.354 28.0546 11.8472C27.4304 10.3403 26.5156 8.97112 25.3623 7.81781C24.209 6.66451 22.8398 5.74966 21.3329 5.12549C19.8261 4.50133 18.211 4.18008 16.58 4.18008C14.949 4.18008 13.3339 4.50133 11.8271 5.12549C10.3202 5.74966 8.95104 6.66451 7.79773 7.81781C6.64443 8.97112 5.72958 10.3403 5.10542 11.8472C4.48125 13.354 4.16 14.9691 4.16 16.6001C4.11 23.7301 9.74 29.1001 17.26 29.0901C23.51 29.0001 29 23.2201 29 16.6001Z" fill="#FFFAF1"/>
<path d="M70.24 44.3101C71.24 43.4001 71.91 42.6801 72.67 42.0301C77.8643 37.6038 84.4757 35.1907 91.3 35.2301C95.8 35.1601 100.3 35.2301 104.61 36.7301C114.81 40.3401 121.12 47.4801 123.61 57.9701C124.135 60.3402 124.386 62.7627 124.36 65.1901C124.43 82.5901 124.36 100 124.36 117.4C124.36 120.49 122.56 122.31 119.47 122.31H100.29C97.11 122.31 95.35 120.54 95.35 117.31C95.35 103.11 95.35 88.9034 95.35 74.6901C95.3622 73.3534 95.2887 72.0174 95.13 70.6901C94.39 64.6901 89.23 62.1301 85.29 61.6901C83.8109 61.4981 82.3084 61.6 80.8687 61.9899C79.4291 62.3799 78.0806 63.0503 76.9007 63.9627C75.7207 64.8751 74.7325 66.0114 73.9928 67.3066C73.2531 68.6018 72.7763 70.0303 72.59 71.5101C72.4364 72.5899 72.3629 73.6795 72.37 74.7701C72.37 89.0234 72.37 103.27 72.37 117.51C72.37 120.71 70.82 122.28 67.61 122.29H46C42.84 122.29 41.29 120.73 41.29 117.62V42.2401C41.29 38.9201 42.87 37.3301 46.18 37.3301C52.54 37.3301 58.9 37.4401 65.25 37.3301C65.9192 37.2809 66.5912 37.3765 67.2201 37.6103C67.8491 37.8442 68.4203 38.2108 68.8947 38.6853C69.3692 39.1598 69.7359 39.731 69.9698 40.3599C70.2036 40.9889 70.2992 41.6609 70.25 42.3301C70.19 42.8501 70.24 43.4101 70.24 44.3101ZM68.41 118.1V83.1001C68.41 79.5801 68.41 76.1001 68.49 72.5401C68.684 68.6023 70.3441 64.8796 73.1439 62.1038C75.9437 59.328 79.6807 57.7001 83.62 57.5401C90.13 57.3001 96.47 61.1701 98.36 66.9201C99.1025 69.3538 99.4733 71.8857 99.46 74.4301C99.61 88.4301 99.61 102.52 99.67 116.57V118.13H120.22V65.2401C120.22 64.5501 120.22 63.8601 120.15 63.1801C119.22 52.6701 114.15 45.1001 104.28 41.0001C100.21 39.3201 95.91 39.3001 91.61 39.3801C87.9346 39.3363 84.2976 40.1314 80.9757 41.7048C77.6538 43.2782 74.7345 45.5886 72.44 48.4601C70.5023 50.5789 68.4421 52.5823 66.27 54.4601V41.5401H45.69V118.1H68.41Z" fill="#FFFAF1"/>
<path d="M31.09 79.8401V115.41C31.09 119.66 28.47 122.29 24.21 122.31C19.11 122.31 14.0134 122.31 8.92003 122.31C4.74003 122.31 2.09003 119.67 2.09003 115.47C2.09003 91.6834 2.09003 67.8901 2.09003 44.0901C2.09003 39.6501 4.50003 37.3401 8.97003 37.3301H24.26C28.44 37.3301 31.08 39.9901 31.09 44.1601V79.8401ZM27 80.0001V44.5501C27 42.1501 26.31 41.4701 23.88 41.4701H9.00003C6.83003 41.4701 6.22003 42.0801 6.22003 44.3001C6.22003 67.9734 6.22003 91.6401 6.22003 115.3C6.22003 117.4 6.98003 118.16 9.07003 118.16C14.05 118.16 19.0267 118.16 24 118.16C26.29 118.16 26.93 117.5 26.93 115.16L27 80.0001Z" fill="#FFFAF1"/>
</g>
<defs>
<clipPath id="clip0_460_12">
<rect width="124.36" height="122.32" fill="white"/>
</clipPath>
</defs>
</svg>
