<svg width="125" height="125" viewBox="0 0 125 125" fill="none" xmlns="http://www.w3.org/2000/svg">
<g clip-path="url(#clip0_460_6)">
<path d="M124.39 31.33V93C124.32 93.43 124.22 93.85 124.17 94.29C123.872 97.6417 123.006 100.918 121.61 103.98C115.37 117.08 104.96 124.1 90.44 124.27C71.62 124.5 52.79 124.33 33.97 124.27C28.1511 124.374 22.4132 122.895 17.37 119.99C6.00002 113.36 0.130015 103.29 0.0600146 90.07C1.46478e-05 71.49 1.46478e-05 52.91 0.0600146 34.33C0.0232478 31.981 0.234417 29.6347 0.690015 27.33C3.76001 13.62 12.12 4.83 25.65 1C27.5353 0.570591 29.441 0.236831 31.36 0L93.06 0C94.37 0.2 95.7 0.32 97 0.62C110.73 3.74 119.56 12.07 123.36 25.62C123.8 27.5046 124.144 29.4104 124.39 31.33ZM117.1 62.18C117.1 52.91 117.1 43.64 117.1 34.37C117.12 32.2671 116.912 30.1682 116.48 28.11C115.217 22.1308 111.906 16.7801 107.119 12.981C102.333 9.18187 96.3699 7.17266 90.26 7.3C71.56 7.3 52.86 7.3 34.16 7.3C30.6232 7.25156 27.1126 7.91246 23.8356 9.24364C20.5585 10.5748 17.5815 12.5493 15.0804 15.0504C12.5793 17.5515 10.6048 20.5285 9.27365 23.8056C7.94247 27.0826 7.28158 30.5932 7.33001 34.13C7.33001 52.7967 7.33001 71.4967 7.33001 90.23C7.30905 92.2114 7.50014 94.1893 7.90001 96.13C9.14074 102.089 12.4109 107.433 17.1525 111.25C21.8941 115.067 27.8133 117.121 33.9 117.06C52.76 117.06 71.62 117.06 90.48 117.06C94.277 117.139 98.041 116.341 101.48 114.73C111.69 109.73 116.95 101.55 117.11 90.21C117.21 80.88 117.1 71.53 117.1 62.18Z" fill="#FFFAF1"/>
<path d="M62.26 28.1799C68.9846 28.1799 75.5581 30.174 81.1494 33.91C86.7407 37.6459 91.0985 42.956 93.6719 49.1687C96.2453 55.3814 96.9186 62.2176 95.6067 68.813C94.2948 75.4084 91.0566 81.4666 86.3016 86.2216C81.5467 90.9766 75.4884 94.2147 68.8931 95.5266C62.2977 96.8385 55.4615 96.1652 49.2488 93.5918C43.0361 91.0185 37.726 86.6606 33.99 81.0693C30.2541 75.478 28.26 68.9045 28.26 62.1799C28.2916 53.1723 31.8839 44.5426 38.2533 38.1732C44.6227 31.8038 53.2524 28.2116 62.26 28.1799ZM62.18 35.4699C56.8986 35.4759 51.7374 37.0474 47.3489 39.986C42.9604 42.9245 39.5416 47.0981 37.5246 51.9792C35.5076 56.8604 34.9829 62.2299 36.0169 67.4092C37.0509 72.5884 39.5971 77.3449 43.3338 81.0773C47.0704 84.8098 51.8298 87.3507 57.0102 88.3789C62.1906 89.4071 67.5595 88.8764 72.4384 86.8539C77.3173 84.8314 81.487 81.4079 84.4206 77.0161C87.3542 72.6243 88.92 67.4614 88.92 62.1799C88.8936 55.0989 86.067 48.3159 81.0571 43.3117C76.0472 38.3074 69.261 35.4884 62.18 35.4699Z" fill="#FFFAF1"/>
<path d="M87 25.9999C87.0277 24.0253 87.6394 22.1031 88.758 20.4757C89.8766 18.8483 91.452 17.5885 93.2856 16.8552C95.1192 16.1219 97.1288 15.9478 99.0611 16.3551C100.993 16.7623 102.762 17.7325 104.144 19.1434C105.525 20.5544 106.458 22.3428 106.825 24.2832C107.192 26.2236 106.976 28.2292 106.204 30.047C105.433 31.8649 104.14 33.4136 102.49 34.4979C100.839 35.5822 98.9047 36.1535 96.93 36.1399C94.2773 36.085 91.7517 34.9924 89.8953 33.0967C88.0389 31.201 86.9994 28.6532 87 25.9999ZM99.77 26.1199C99.7719 25.5763 99.6122 25.0444 99.3109 24.5918C99.0097 24.1393 98.5807 23.7866 98.0785 23.5786C97.5762 23.3706 97.0234 23.3167 96.4905 23.4237C95.9575 23.5308 95.4684 23.7939 95.0854 24.1797C94.7025 24.5655 94.4429 25.0565 94.3398 25.5903C94.2366 26.124 94.2946 26.6764 94.5063 27.1771C94.718 27.6778 95.0739 28.1042 95.5286 28.4021C95.9833 28.7 96.5164 28.8559 97.06 28.8499C97.7657 28.8229 98.4354 28.5311 98.9358 28.0326C99.4361 27.5341 99.7304 26.8655 99.76 26.1599L99.77 26.1199Z" fill="#FFFAF1"/>
</g>
<defs>
<clipPath id="clip0_460_6">
<rect width="124.39" height="124.42" fill="white"/>
</clipPath>
</defs>
</svg>
