<svg width="117" height="112" viewBox="0 0 117 112" fill="none" xmlns="http://www.w3.org/2000/svg">
<g clip-path="url(#clip0_460_2)">
<path d="M116.57 60.6199C116.27 62.7999 116.09 64.9899 115.66 67.1299C111.5 87.8099 99.45 102 80.15 110.23C79.0326 110.697 77.891 111.105 76.73 111.45C74.25 112.2 72.58 110.97 72.58 108.45C72.58 103.98 72.58 99.4499 72.58 95.0199C72.58 90.5899 72.28 86.0899 69 82.7499C72.25 81.9899 75.55 81.4299 78.71 80.4399C88.71 77.2799 93.78 70.0599 94.91 59.9199C95.2149 56.8308 95.2149 53.7191 94.91 50.6299C94.4507 46.5262 92.6999 42.6743 89.91 39.6299C89.6994 39.4214 89.5578 39.1534 89.5041 38.862C89.4505 38.5706 89.4874 38.2697 89.61 37.9999C90.8947 33.518 90.6805 28.739 89 24.3899C88.67 23.4699 87.93 23.5199 87.34 23.6399C85.1412 23.9742 82.9785 24.5132 80.88 25.2499C78.33 26.2999 76 27.8399 73.53 29.0999C73.0213 29.3699 72.4379 29.4648 71.87 29.3699C62.8807 27.13 53.4792 27.13 44.49 29.3699C43.8813 29.4566 43.2615 29.3255 42.74 28.9999C39.14 26.7899 35.48 24.7399 31.29 23.8699C27.84 23.1499 27.46 23.3799 26.62 26.7299C25.5556 30.5166 25.6252 34.5323 26.82 38.2799C26.8702 38.4612 26.8791 38.6513 26.8463 38.8365C26.8134 39.0216 26.7395 39.1971 26.63 39.3499C21.77 44.8199 20.57 51.3499 21.25 58.3499C21.5067 62.0704 22.4386 65.7132 24 69.0999C26.93 75.0999 31.85 78.7399 38.1 80.6299C41.1 81.5299 44.2 82.0599 47.26 82.7499C46.6473 83.4734 46.1048 84.2536 45.64 85.0799C45.01 86.4499 44.64 87.9199 44.08 89.3299C43.93 89.7199 43.75 90.3299 43.44 90.3999C38.94 92.1599 34.44 92.5999 30.44 89.3999C29.0748 88.2076 27.8863 86.8271 26.91 85.2999C24.8 82.2999 22.25 80.0999 18.51 79.6399C17.758 79.5682 16.9992 79.6326 16.27 79.8299C15.34 80.0599 15.15 80.7099 15.79 81.4499C16.2581 82.0005 16.8078 82.476 17.42 82.8599C20.3429 84.6232 22.5654 87.3439 23.71 90.5599C26.38 97.7699 33.03 100.31 39.91 99.6699C41.15 99.5599 42.38 99.3499 43.79 99.1699V105.17C43.79 106.17 43.79 107.17 43.79 108.17C43.79 111.1 42.03 112.36 39.22 111.4C31.8712 108.93 25.0985 104.997 19.31 99.8399C9.23998 90.8599 2.79998 79.7499 0.769977 66.4099C-2.18002 47.0899 3.35998 30.2999 17.3 16.6199C29.71 4.42993 44.93 -0.920066 62.26 0.129934C74.6456 0.868507 86.4652 5.571 95.973 13.5428C105.481 21.5146 112.173 32.333 115.06 44.3999C115.7 47.0799 115.94 49.8599 116.36 52.5899C116.42 52.9899 116.5 53.3899 116.57 53.7899V60.6199Z" fill="#FFFAF1"/>
</g>
<defs>
<clipPath id="clip0_460_2">
<rect width="116.57" height="111.72" fill="white"/>
</clipPath>
</defs>
</svg>
