<svg width="126" height="126" viewBox="0 0 126 126" fill="none" xmlns="http://www.w3.org/2000/svg">
<path d="M103.84 126C102.677 125.263 101.57 124.438 100.531 123.534C89.5016 112.574 78.4986 101.581 67.5223 90.555C67.1742 90.1783 66.8462 89.7834 66.5396 89.3722C66.1787 89.9937 65.918 90.3946 65.6773 90.7956L51.9603 114.553C51.5095 115.625 50.6701 116.487 49.6102 116.967C48.5503 117.446 47.3482 117.508 46.2449 117.139C45.5348 116.87 44.895 116.443 44.3739 115.891C43.8528 115.339 43.464 114.675 43.2368 113.951C40.4693 106.974 37.6885 100.011 34.8943 93.061C23.5303 64.5125 12.153 35.9775 0.762277 7.45572C-0.120103 5.25043 -0.561292 3.16543 1.28368 1.30096C3.12866 -0.563508 5.2945 -0.12245 7.44028 0.759665L113.486 43.0611C114.368 43.2736 115.177 43.7157 115.833 44.3425C116.488 44.9694 116.965 45.7585 117.216 46.6297C117.438 47.4442 117.415 48.3059 117.152 49.1078C116.888 49.9097 116.394 50.6165 115.732 51.1405C115.249 51.5269 114.733 51.8691 114.188 52.1629L90.765 65.6954L89.5417 66.4372L90.4842 67.4596C101.354 78.3524 112.23 89.2385 123.112 100.118C124.146 101.298 125.11 102.536 126 103.827V105.832C125.138 107.096 124.2 108.308 123.192 109.46C118.54 114.192 113.861 118.87 109.155 123.494C108.114 124.387 107.015 125.211 105.866 125.96L103.84 126ZM48.4308 102.484L49.1728 101.241C53.1836 94.324 57.1945 87.3874 61.2053 80.4909C61.698 79.6024 62.3832 78.8352 63.2107 78.2455C65.1158 77.0025 67.2215 77.4837 69.2269 79.4083L103.74 113.971L104.642 114.833L115.01 104.508C114.658 104.294 114.323 104.053 114.008 103.787L79.5347 69.3241C76.5466 66.3369 76.9678 63.3097 80.6176 61.0843L101.173 49.2159L102.436 48.434L12.5741 12.588L48.4308 102.484Z" fill="#FFFAF1"/>
</svg>
